<svg xmlns="http://www.w3.org/2000/svg" xmlns:xlink="http://www.w3.org/1999/xlink" viewBox="0 0 397.12 406.71"><defs><style>.cls-1,.cls-22,.cls-31{fill:none;}.cls-2{fill:#37313a;}.cls-3{fill:#a5a0aa;}.cls-4{fill:#e16450;}.cls-5{clip-path:url(#clip-path);}.cls-6{fill:#fa870a;}.cls-7{fill:#ebebf0;}.cls-23,.cls-8{opacity:0.2;}.cls-9{clip-path:url(#clip-path-2);}.cls-10{fill:#fa690f;}.cls-11{clip-path:url(#clip-path-3);}.cls-12{fill:#c8bec3;}.cls-13,.cls-14{fill:#252126;}.cls-14{font-size:20px;}.cls-14,.cls-29{font-family:BebasNeueBold;}.cls-15{letter-spacing:-0.02em;}.cls-16{letter-spacing:0em;}.cls-17{letter-spacing:0.03em;}.cls-18{fill:#695a6e;}.cls-19{fill:#ffda38;}.cls-20{clip-path:url(#clip-path-4);}.cls-21,.cls-23{fill:#302d2f;}.cls-22{stroke:#50374b;}.cls-22,.cls-31{stroke-miterlimit:10;}.cls-24{clip-path:url(#clip-path-5);}.cls-25{clip-path:url(#clip-path-6);}.cls-26{fill:#504654;}.cls-27,.cls-29{fill:#965028;}.cls-28{fill:#ffa50a;}.cls-29{font-size:10px;}.cls-30{clip-path:url(#clip-path-7);}.cls-31{stroke:#ffaa50;stroke-linecap:round;stroke-width:4px;}.cls-32{fill:#faf58c;}</style><clipPath id="clip-path" transform="translate(-78.43 55.71)"><rect class="cls-1" x="308.02" y="262.93" width="113.55" height="15.53"/></clipPath><clipPath id="clip-path-2" transform="translate(-78.43 55.71)"><rect class="cls-1" x="308.02" y="296.94" width="113.55" height="15.53"/></clipPath><clipPath id="clip-path-3" transform="translate(-78.43 55.71)"><polygon class="cls-1" points="168.08 301.33 181.75 334.87 135.39 339.97 131.11 329.46 168.08 301.33"/></clipPath><clipPath id="clip-path-4" transform="translate(-78.43 55.71)"><rect class="cls-1" x="129.78" y="227.3" width="236.87" height="18.63"/></clipPath><clipPath id="clip-path-5" transform="translate(-78.43 55.71)"><polygon class="cls-1" points="207.04 131.97 131.19 207.82 118.01 194.65 180.69 131.97 207.04 131.97"/></clipPath><clipPath id="clip-path-6" transform="translate(-78.43 55.71)"><polygon class="cls-1" points="308.02 131.54 361.87 185.39 361.87 159.04 334.37 131.54 308.02 131.54"/></clipPath><clipPath id="clip-path-7" transform="translate(-78.43 55.71)"><polygon class="cls-1" points="307.21 333.6 271 333.6 283.76 288.75 295.12 288.75 307.21 333.6"/></clipPath></defs><title>under construction</title><g id="OBJECTS"><rect class="cls-2" x="239.74" y="313.97" width="7.75" height="80.37"/><path class="cls-3" d="M335.51,338.63H308a4.1,4.1,0,0,1,4.11-4.1h19.28a4.09,4.09,0,0,1,4.1,4.1Z" transform="translate(-78.43 55.71)"/><circle class="cls-3" cx="243.62" cy="309.44" r="7"/><circle class="cls-4" cx="243.62" cy="309.44" r="4.71"/><rect class="cls-2" x="325.8" y="313.97" width="7.75" height="80.37"/><path class="cls-3" d="M421.57,338.63H394.08a4.1,4.1,0,0,1,4.11-4.1h19.28a4.09,4.09,0,0,1,4.1,4.1Z" transform="translate(-78.43 55.71)"/><circle class="cls-3" cx="329.68" cy="309.44" r="7"/><path class="cls-4" d="M412.82,253.73a4.72,4.72,0,1,1-4.71-4.71A4.71,4.71,0,0,1,412.82,253.73Z" transform="translate(-78.43 55.71)"/><g class="cls-5"><rect class="cls-6" x="229.6" y="318.64" width="113.55" height="15.53"/><polygon class="cls-7" points="233.16 342.11 226.85 337.5 264.76 309.81 271.07 314.42 233.16 342.11"/><polygon class="cls-7" points="261.54 342.11 255.23 337.5 293.14 309.81 299.45 314.42 261.54 342.11"/><polygon class="cls-7" points="289.91 342.11 283.61 337.5 321.52 309.81 327.83 314.42 289.91 342.11"/><polygon class="cls-7" points="318.29 342.11 311.98 337.5 349.9 309.81 356.2 314.42 318.29 342.11"/><rect class="cls-8" x="229.6" y="331.3" width="113.55" height="3.28"/></g><g class="cls-9"><rect class="cls-6" x="229.6" y="352.64" width="113.55" height="15.53"/><polygon class="cls-7" points="233.16 376.11 226.85 371.5 264.76 343.81 271.07 348.42 233.16 376.11"/><polygon class="cls-7" points="261.54 376.11 255.23 371.5 293.14 343.81 299.45 348.42 261.54 376.11"/><polygon class="cls-7" points="289.91 376.11 283.61 371.5 321.52 343.81 327.83 348.42 289.91 376.11"/><polygon class="cls-7" points="318.29 376.11 311.98 371.5 349.9 343.81 356.2 348.42 318.29 376.11"/><rect class="cls-8" x="229.6" y="365.3" width="113.55" height="3.28"/></g><path class="cls-6" d="M169.58,291.69l19.3,47.36h0a5,5,0,0,1-6.55-2.76l-15.51-38.05a5,5,0,0,1,2.76-6.55Z" transform="translate(-78.43 55.71)"/><polygon class="cls-6" points="89.66 357.04 103.32 390.57 56.96 395.68 52.68 385.16 89.66 357.04"/><polygon class="cls-10" points="89.66 357.04 92.14 363.14 53.1 386.19 52.68 385.16 89.66 357.04"/><polygon class="cls-10" points="100.06 390.93 103.32 390.57 89.66 357.04 87.06 359.02 100.06 390.93"/><g class="cls-11"><rect class="cls-7" x="130.56" y="324.57" width="38.75" height="7.5" transform="translate(-175.97 646.76) rotate(-112.17)"/><rect class="cls-7" x="146.53" y="318.06" width="38.75" height="7.5" transform="translate(-147.95 652.59) rotate(-112.17)"/></g><path class="cls-12" d="M298.18,325.25h0a18.94,18.94,0,0,1-18.94-18.94V288H215.18v18.35a18.94,18.94,0,0,1-18.94,18.94h0a13.38,13.38,0,0,0-13.38,13.38h128.7A13.38,13.38,0,0,0,298.18,325.25Z" transform="translate(-78.43 55.71)"/><path class="cls-3" d="M279.24,297.7V288H215.18v9.74C223.47,290.86,268.89,291.61,279.24,297.7Z" transform="translate(-78.43 55.71)"/><path class="cls-13" d="M65.62,188.71H271.95a10,10,0,0,1,10,10V322.5a0,0,0,0,1,0,0H55.58a0,0,0,0,1,0,0V198.76A10,10,0,0,1,65.62,188.71Z"/><rect class="cls-3" x="65.54" y="199.75" width="206.49" height="111.72"/><path class="cls-7" d="M55.58,322.5H282a0,0,0,0,1,0,0V334a13.33,13.33,0,0,1-13.33,13.33H68.91A13.33,13.33,0,0,1,55.58,334V322.5A0,0,0,0,1,55.58,322.5Z"/><path class="cls-7" d="M118,380.82H219.62a13.52,13.52,0,0,1,13.52,13.52v0a0,0,0,0,1,0,0H104.43a0,0,0,0,1,0,0v0A13.52,13.52,0,0,1,118,380.82Z"/><text class="cls-14" transform="translate(69.78 274.84)">UNDER <tspan class="cls-15" x="64.26" y="0">C</tspan><tspan class="cls-16" x="75.44" y="0">ONSTRU</tspan><tspan class="cls-17" x="145.88" y="0">C</tspan><tspan x="158.04" y="0">TION</tspan></text><circle class="cls-12" cx="75.84" cy="331.66" r="1.11"/><circle class="cls-12" cx="81.38" cy="331.66" r="1.11"/><circle class="cls-12" cx="86.92" cy="331.66" r="1.11"/><circle class="cls-12" cx="92.46" cy="331.66" r="1.11"/><circle class="cls-12" cx="98" cy="331.66" r="1.11"/><circle class="cls-12" cx="103.54" cy="331.66" r="1.11"/><circle class="cls-12" cx="109.08" cy="331.66" r="1.11"/><circle class="cls-12" cx="75.84" cy="336.91" r="1.11"/><circle class="cls-12" cx="81.38" cy="336.91" r="1.11"/><circle class="cls-12" cx="86.92" cy="336.91" r="1.11"/><circle class="cls-12" cx="92.46" cy="336.91" r="1.11"/><circle class="cls-12" cx="98" cy="336.91" r="1.11"/><circle class="cls-12" cx="103.54" cy="336.91" r="1.11"/><circle class="cls-12" cx="109.08" cy="336.91" r="1.11"/><circle class="cls-12" cx="261.73" cy="331.66" r="1.11"/><circle class="cls-12" cx="256.19" cy="331.66" r="1.11"/><circle class="cls-12" cx="250.65" cy="331.66" r="1.11"/><circle class="cls-12" cx="245.11" cy="331.66" r="1.11"/><path class="cls-12" d="M316.88,276a1.11,1.11,0,1,0,1.11-1.11A1.11,1.11,0,0,0,316.88,276Z" transform="translate(-78.43 55.71)"/><circle class="cls-12" cx="234.03" cy="331.66" r="1.11"/><path class="cls-12" d="M305.81,276a1.11,1.11,0,1,0,1.1-1.11A1.11,1.11,0,0,0,305.81,276Z" transform="translate(-78.43 55.71)"/><circle class="cls-12" cx="261.73" cy="336.91" r="1.11"/><circle class="cls-12" cx="256.19" cy="336.91" r="1.11"/><circle class="cls-12" cx="250.65" cy="336.91" r="1.11"/><circle class="cls-12" cx="245.11" cy="336.91" r="1.11"/><path class="cls-12" d="M316.88,281.2a1.11,1.11,0,1,0,1.11-1.11A1.11,1.11,0,0,0,316.88,281.2Z" transform="translate(-78.43 55.71)"/><circle class="cls-12" cx="234.03" cy="336.91" r="1.11"/><path class="cls-12" d="M305.81,281.2a1.11,1.11,0,1,0,1.1-1.11A1.11,1.11,0,0,0,305.81,281.2Z" transform="translate(-78.43 55.71)"/><circle class="cls-18" cx="168.78" cy="225.6" r="21.31"/><rect class="cls-19" x="51.36" y="283.01" width="236.87" height="18.63"/><g class="cls-20"><polygon class="cls-21" points="51.6 309.33 41.45 309.33 61.45 275.32 71.6 275.32 51.6 309.33"/><polygon class="cls-21" points="70.75 309.33 60.6 309.33 80.6 275.32 90.75 275.32 70.75 309.33"/><polygon class="cls-21" points="89.9 309.33 79.75 309.33 99.75 275.32 109.9 275.32 89.9 309.33"/><polygon class="cls-21" points="109.05 309.33 98.9 309.33 118.9 275.32 129.05 275.32 109.05 309.33"/><polygon class="cls-21" points="128.19 309.33 118.05 309.33 138.05 275.32 148.19 275.32 128.19 309.33"/><polygon class="cls-21" points="147.34 309.33 137.2 309.33 157.2 275.32 167.34 275.32 147.34 309.33"/><polygon class="cls-21" points="166.49 309.33 156.34 309.33 176.35 275.32 186.49 275.32 166.49 309.33"/><polygon class="cls-21" points="185.64 309.33 175.49 309.33 195.49 275.32 205.64 275.32 185.64 309.33"/><polygon class="cls-21" points="204.79 309.33 194.64 309.33 214.64 275.32 224.79 275.32 204.79 309.33"/><polygon class="cls-21" points="223.94 309.33 213.79 309.33 233.79 275.32 243.94 275.32 223.94 309.33"/><polygon class="cls-21" points="243.08 309.33 232.94 309.33 252.94 275.32 263.08 275.32 243.08 309.33"/><polygon class="cls-21" points="262.23 309.33 252.09 309.33 272.09 275.32 282.23 275.32 262.23 309.33"/><polygon class="cls-21" points="281.38 309.33 271.24 309.33 291.24 275.32 301.38 275.32 281.38 309.33"/><polygon class="cls-21" points="300.53 309.33 290.38 309.33 310.38 275.32 320.53 275.32 300.53 309.33"/><polygon class="cls-21" points="319.68 309.33 309.53 309.33 329.53 275.32 339.68 275.32 319.68 309.33"/><polygon class="cls-21" points="338.83 309.33 328.68 309.33 348.68 275.32 358.83 275.32 338.83 309.33"/><polygon class="cls-21" points="357.97 309.33 347.83 309.33 367.83 275.32 377.98 275.32 357.97 309.33"/><polygon class="cls-21" points="377.12 309.33 366.98 309.33 386.98 275.32 397.12 275.32 377.12 309.33"/></g><path class="cls-18" d="M243.56,150.7l-18.33,31.74a4.22,4.22,0,0,0,3.65,6.33h36.65a4.22,4.22,0,0,0,3.65-6.33L250.86,150.7A4.21,4.21,0,0,0,243.56,150.7Z" transform="translate(-78.43 55.71)"/><path class="cls-19" d="M243.56,148.7l-18.33,31.74a4.22,4.22,0,0,0,3.65,6.33h36.65a4.22,4.22,0,0,0,3.65-6.33L250.86,148.7A4.21,4.21,0,0,0,243.56,148.7Z" transform="translate(-78.43 55.71)"/><path class="cls-22" d="M245.73,150.26l-17.95,31.09a1.7,1.7,0,0,0,1.48,2.55h35.9a1.7,1.7,0,0,0,1.48-2.55l-18-31.09A1.7,1.7,0,0,0,245.73,150.26Z" transform="translate(-78.43 55.71)"/><polygon class="cls-13" points="170.4 229.3 171.32 214.83 166.25 214.83 167.17 229.3 170.4 229.3"/><path class="cls-13" d="M247.21,175.36a2.16,2.16,0,1,0,2.16,2.16A2.16,2.16,0,0,0,247.21,175.36Z" transform="translate(-78.43 55.71)"/><polygon class="cls-23" points="136.76 188.71 55.18 272.5 55.75 259.53 126.09 188.77 136.76 188.71"/><polygon class="cls-23" points="281.71 238.14 232.63 188.77 221.97 188.71 281.71 250.07 281.71 238.14"/><polygon class="cls-19" points="102.27 187.67 55.18 234.76 55.18 261.1 128.62 187.67 102.27 187.67"/><g class="cls-24"><polygon class="cls-21" points="71.91 255.26 64.73 262.43 54.83 224.24 62 217.06 71.91 255.26"/><polygon class="cls-21" points="85.45 241.72 78.27 248.89 68.37 210.7 75.54 203.52 85.45 241.72"/><polygon class="cls-21" points="98.99 228.18 91.81 235.35 81.91 197.16 89.08 189.98 98.99 228.18"/><polygon class="cls-21" points="112.53 214.64 105.35 221.81 95.45 183.62 102.62 176.44 112.53 214.64"/><polygon class="cls-21" points="126.07 201.1 118.89 208.27 108.99 170.08 116.16 162.9 126.07 201.1"/><polygon class="cls-21" points="139.61 187.56 132.43 194.73 122.53 156.54 129.7 149.36 139.61 187.56"/><polygon class="cls-21" points="153.15 174.02 145.97 181.19 136.07 143 143.24 135.82 153.15 174.02"/><polygon class="cls-21" points="166.69 160.48 159.51 167.65 149.61 129.46 156.78 122.28 166.69 160.48"/><polygon class="cls-21" points="180.23 146.94 173.05 154.11 163.15 115.92 170.32 108.74 180.23 146.94"/><polygon class="cls-21" points="193.77 133.4 186.59 140.57 176.69 102.38 183.86 95.2 193.77 133.4"/><polygon class="cls-21" points="207.31 119.86 200.13 127.03 190.23 88.84 197.4 81.66 207.31 119.86"/><polygon class="cls-21" points="220.85 106.32 213.67 113.49 203.77 75.3 210.94 68.12 220.85 106.32"/><polygon class="cls-21" points="234.39 92.78 227.21 99.95 217.31 61.76 224.48 54.58 234.39 92.78"/><polygon class="cls-21" points="247.93 79.24 240.75 86.41 230.85 48.22 238.02 41.04 247.93 79.24"/><polygon class="cls-21" points="261.47 65.7 254.29 72.87 244.39 34.68 251.56 27.5 261.47 65.7"/><polygon class="cls-21" points="275.01 52.16 267.83 59.33 257.93 21.14 265.1 13.96 275.01 52.16"/><polygon class="cls-21" points="288.55 38.62 281.37 45.79 271.47 7.6 278.64 0.42 288.55 38.62"/></g><polygon class="cls-19" points="283.44 214.75 255.94 187.25 229.6 187.25 283.44 241.09 283.44 214.75"/><g class="cls-25"><polygon class="cls-21" points="286.3 254.83 293.48 262 303.38 223.81 296.21 216.64 286.3 254.83"/><polygon class="cls-21" points="272.76 241.29 279.94 248.47 289.84 210.27 282.67 203.1 272.76 241.29"/><polygon class="cls-21" points="259.22 227.75 266.4 234.93 276.3 196.73 269.13 189.56 259.22 227.75"/><polygon class="cls-21" points="245.68 214.21 252.86 221.38 262.76 183.19 255.59 176.02 245.68 214.21"/><polygon class="cls-21" points="232.14 200.67 239.32 207.84 249.22 169.65 242.05 162.48 232.14 200.67"/><polygon class="cls-21" points="218.6 187.13 225.78 194.31 235.68 156.11 228.51 148.94 218.6 187.13"/><polygon class="cls-21" points="205.06 173.59 212.24 180.76 222.14 142.57 214.97 135.4 205.06 173.59"/><polygon class="cls-21" points="191.52 160.05 198.7 167.22 208.6 129.03 201.43 121.86 191.52 160.05"/><polygon class="cls-21" points="177.98 146.51 185.16 153.69 195.06 115.49 187.89 108.32 177.98 146.51"/><polygon class="cls-21" points="164.44 132.97 171.62 140.15 181.52 101.95 174.35 94.78 164.44 132.97"/><polygon class="cls-21" points="150.9 119.43 158.08 126.61 167.98 88.41 160.81 81.24 150.9 119.43"/><polygon class="cls-21" points="137.36 105.89 144.54 113.06 154.44 74.87 147.27 67.7 137.36 105.89"/><polygon class="cls-21" points="123.82 92.35 131 99.53 140.9 61.33 133.73 54.16 123.82 92.35"/><polygon class="cls-21" points="110.28 78.81 117.46 85.98 127.36 47.79 120.19 40.62 110.28 78.81"/><polygon class="cls-21" points="96.74 65.27 103.92 72.44 113.82 34.25 106.65 27.08 96.74 65.27"/><polygon class="cls-21" points="83.2 51.73 90.38 58.91 100.28 20.71 93.11 13.54 83.2 51.73"/><polygon class="cls-21" points="69.66 38.19 76.84 45.37 86.74 7.17 79.57 0 69.66 38.19"/></g><rect class="cls-23" x="55.58" y="301.64" width="226.41" height="6.17"/><path class="cls-26" d="M418.87,351H90.8a12.37,12.37,0,0,1-12.37-12.37H431.24A12.37,12.37,0,0,1,418.87,351Z" transform="translate(-78.43 55.71)"/><path class="cls-27" d="M144.69,276.65l14.19,62h-11.1a9.44,9.44,0,0,0-9.44-9.43h-8.05a9.44,9.44,0,0,0-9.44,9.43h-11.1l-7.81-62Z" transform="translate(-78.43 55.71)"/><path class="cls-19" d="M101.38,276.65l-13.19,62H99.3a9.43,9.43,0,0,1,9.43-9.43h8a9.44,9.44,0,0,1,9.44,9.43h11.1l6.82-62Z" transform="translate(-78.43 55.71)"/><polygon class="cls-28" points="61.52 394.34 58.86 394.34 65.66 332.36 66.27 332.36 67.2 336.45 61.52 394.34"/><text class="cls-29" transform="matrix(0.99, 0, -0.14, 0.99, 23.64, 360.13)">PEOPLE<tspan x="-4.75" y="11.11">WORKING</tspan></text><path class="cls-18" d="M133,285.29H109a2.05,2.05,0,0,1-2-2.05h0a2,2,0,0,1,2-2h24a2,2,0,0,1,2,2h0A2,2,0,0,1,133,285.29Z" transform="translate(-78.43 55.71)"/><path class="cls-6" d="M315.58,338.63H264.43a5,5,0,0,1,5-5h41.09a5,5,0,0,1,5,5Z" transform="translate(-78.43 55.71)"/><polygon class="cls-6" points="228.78 389.31 192.57 389.31 205.34 344.45 216.69 344.45 228.78 389.31"/><polygon class="cls-10" points="228.78 389.31 222.2 389.31 215.58 344.45 216.69 344.45 228.78 389.31"/><polygon class="cls-10" points="193.47 386.16 192.57 389.31 228.78 389.31 227.93 386.16 193.47 386.16"/><g class="cls-30"><rect class="cls-7" x="191.26" y="358.57" width="38.75" height="7.5"/><rect class="cls-7" x="191.26" y="375.82" width="38.75" height="7.5"/></g><path class="cls-19" d="M270.48,133a25.84,25.84,0,0,0-51.62,0Z" transform="translate(-78.43 55.71)"/><path class="cls-31" d="M264.43,129.33a20.31,20.31,0,0,0-19.76-15.59" transform="translate(-78.43 55.71)"/><path class="cls-31" d="M254.45,127.28a12.3,12.3,0,0,0-10.12-5.3" transform="translate(-78.43 55.71)"/><path class="cls-32" d="M283.69,133H238a5.45,5.45,0,0,1,5.45-5.46h34.84a5.45,5.45,0,0,1,5.45,5.46Z" transform="translate(-78.43 55.71)"/><path class="cls-19" d="M248.32,109.44l-.81,1.7c18.24,5.51,20.14,16.41,20.14,16.41h5.41c-2-12.92-14.4-18.24-20.3-20A3.72,3.72,0,0,0,248.32,109.44Z" transform="translate(-78.43 55.71)"/></g></svg>